<svg xmlns="http://www.w3.org/2000/svg" width="48" height="48" viewBox="0 0 48 48">
    <g fill="none" fill-rule="evenodd">
        <path d="M0 0H48V48H0z"/>
        <path fill="#0C9" d="M39 26c4.97 0 9 4.03 9 9s-4.03 9-9 9-9-4.03-9-9 4.03-9 9-9zm0 2c-3.866 0-7 3.134-7 7s3.134 7 7 7 7-3.134 7-7-3.134-7-7-7zm0-19c1.598 0 2.904 1.249 2.995 2.824L42 12l.001 12.414c-.645-.182-1.313-.307-2-.37L40 12c0-.513-.386-.936-.883-.993L39 11H6c-.513 0-.936.386-.993.883L5 12v24c0 .513.386.936.883.993L6 37h22.181c.128.692.32 1.361.57 2.001L6 39c-1.598 0-2.904-1.249-2.995-2.824L3 36V12c0-1.598 1.249-2.904 2.824-2.995L6 9h33zm-1.414 23.172L39 33.586l1.414-1.414c.36-.36.928-.389 1.32-.084l.094.084c.391.39.391 1.023 0 1.414L40.414 35l1.414 1.414c.391.39.391 1.024 0 1.414-.39.391-1.023.391-1.414 0L39 36.414l-1.414 1.414c-.36.36-.928.389-1.32.084l-.094-.084c-.391-.39-.391-1.023 0-1.414L37.586 35l-1.414-1.414c-.391-.39-.391-1.024 0-1.414.39-.391 1.023-.391 1.414 0zM25 29c.552 0 1 .448 1 1s-.448 1-1 1H12c-.552 0-1-.448-1-1s.448-1 1-1h13zm4-6c.552 0 1 .448 1 1s-.448 1-1 1H12c-.552 0-1-.448-1-1s.448-1 1-1h17zm4-6c.552 0 1 .448 1 1s-.448 1-1 1H12c-.552 0-1-.448-1-1s.448-1 1-1h21z"/>
    </g>
</svg>
