<svg xmlns="http://www.w3.org/2000/svg" width="48" height="48" viewBox="0 0 48 48">
    <path fill="#0C9" fill-rule="evenodd" d="M36 41c.552 0 1 .448 1 1s-.448 1-1 1H12c-.552 0-1-.448-1-1s.448-1 1-1h24zm6-36c1.657 0 3 1.343 3 3v24c0 1.657-1.343 3-3 3H6c-1.657 0-3-1.343-3-3V8c0-1.657 1.343-3 3-3h36zm0 2H6c-.552 0-1 .448-1 1v24c0 .552.448 1 1 1h36c.552 0 1-.448 1-1V8c0-.552-.448-1-1-1zm-9 8c2.761 0 5 2.239 5 5s-2.239 5-5 5h-3c-1.105 0-2-.895-2-2v-6c0-1.105.895-2 2-2h3zm-8 0c.552 0 1 .448 1 1v8c0 .552-.448 1-1 1s-1-.448-1-1v-3h-4v3c0 .552-.448 1-1 1s-1-.448-1-1v-8c0-.552.448-1 1-1s1 .448 1 1v3h4v-3c0-.552.448-1 1-1zm-10 0c.552 0 1 .448 1 1 0 .513-.386.936-.883.993L15 17l-3-.001V19h3c.513 0 .936.386.993.883L16 20c0 .513-.386.936-.883.993L15 21h-3v3c0 .513-.386.936-.883.993L11 25c-.513 0-.936-.386-.993-.883L10 24v-8c0-.513.386-.936.883-.993L11 15h4zm18 2h-3v6h3c1.657 0 3-1.343 3-3s-1.343-3-3-3z"/>
</svg>
