<svg xmlns="http://www.w3.org/2000/svg" width="48" height="48" viewBox="0 0 48 48">
    <g fill="none" fill-rule="evenodd">
        <path d="M0 0h48v48H0z"/>
        <path fill="#0C9" d="M38.789 27a5 5 0 0 1 2.773.84l4.993 3.328a1 1 0 1 1-1.11 1.664l-4.51-3.008c.043.219.065.445.065.676a8.127 8.127 0 0 1-1.78 5.077l-.225.279 1.975 7.901a1 1 0 0 1-.616 1.178l-.111.035a1 1 0 0 1-1.213-.727l-1.754-7.017a3.571 3.571 0 0 1-2.552 0l-1.754 7.017a1 1 0 0 1-1.94-.486l1.974-7.901-.223-.28a8.127 8.127 0 0 1-1.775-4.751L31 30.5c0-.537.12-1.045.337-1.5H28a1 1 0 0 1-.969-.75l-6.972-8.136 2.911 11.643a1 1 0 0 1-.857 1.237L22 33h-2.82l1.806 10.836a1 1 0 0 1-.708 1.125l-.114.025a1 1 0 0 1-1.15-.822L17.152 33h-2.305l-1.86 11.164a1 1 0 0 1-1.035.835l-.116-.013a1 1 0 0 1-.822-1.15L12.819 33H10a1 1 0 0 1-.991-1.131l.02-.112 2.851-11.402-7.048 8.223a1 1 0 1 1-1.518-1.302l8.963-10.457a5 5 0 0 1 7.592 0L28.595 27H38.79zM34.5 29a1.5 1.5 0 0 0-1.5 1.5c0 1.391.473 2.741 1.343 3.827l.438.548a1.561 1.561 0 0 0 2.438 0l.438-.548A6.127 6.127 0 0 0 39 30.5a1.5 1.5 0 0 0-1.5-1.5zM14.498 17.52l-.059.038c.08.191.1.409.046.625L11.281 31h9.438l-3.204-12.817a.996.996 0 0 1 .079-.696 3.002 3.002 0 0 0-3.096.032zM36 15a5 5 0 1 1 0 10 5 5 0 0 1 0-10zm0 2a3 3 0 1 0 0 6 3 3 0 0 0 0-6zM16 3a5 5 0 0 1 5 5c0 1.448 1.552 3 3 3a1 1 0 0 1 0 2c-1.51 0-2.985-.858-3.937-2.087A4.99 4.99 0 0 1 16 13a4.994 4.994 0 0 1-4.065-2.088C10.985 12.142 9.511 13 8 13a1 1 0 0 1 0-2c1.448 0 3-1.552 3-3l.005-.217A5 5 0 0 1 16 3zm0 2a3 3 0 1 0 0 6 3 3 0 0 0 0-6z"/>
    </g>
</svg>
