<svg xmlns="http://www.w3.org/2000/svg" width="48" height="48" viewBox="0 0 48 48">
    <g fill="none" fill-rule="evenodd">
        <path d="M0 0H48V48H0z"/>
        <path fill="#0C9" d="M24 3c11.598 0 21 9.402 21 21s-9.402 21-21 21S3 35.598 3 24 12.402 3 24 3zm0 2C13.507 5 5 13.507 5 24s8.507 19 19 19 19-8.507 19-19S34.493 5 24 5zm0 8c.552 0 1 .448 1 1v15.585l6.293-6.292c.39-.39 1.024-.39 1.414 0 .39.39.39 1.024 0 1.414l-8 8c-.39.39-1.024.39-1.414 0l-8-8c-.39-.39-.39-1.024 0-1.414.39-.39 1.024-.39 1.414 0L23 29.585V14c0-.513.386-.936.883-.993z"/>
    </g>
</svg>
