<svg xmlns="http://www.w3.org/2000/svg" width="48" height="48" viewBox="0 0 48 48">
    <g fill="none" fill-rule="evenodd">
        <path d="M0 0H48V48H0z"/>
        <path fill="#0C9" d="M12 41c-.552 0-1-.448-1-1s.448-1 1-1h15.171c-.11-.312-.171-.649-.171-1v-5H10c-1.674 0-2.91-1.168-2.995-2.815L7 30V10c0-1.744 1.264-3 3-3h28c1.736 0 3 1.256 3 3v5h1c1.657 0 3 1.343 3 3v20c0 1.657-1.343 3-3 3zm22-24h-4c-.552 0-1 .448-1 1v20c0 .552.448 1 1 1h12c.552 0 1-.448 1-1V18c0-.552-.448-1-1-1h-4c.552 0 1 .448 1 1s-.448 1-1 1h-4c-.552 0-1-.448-1-1s.448-1 1-1zm4-8H10c-.634 0-1 .364-1 1v20c0 .636.366 1 1 1h17V18c0-1.598 1.249-2.904 2.824-2.995L30 15h9v-5c0-.636-.366-1-1-1z"/>
    </g>
</svg>
