<svg xmlns="http://www.w3.org/2000/svg" width="40" height="40" viewBox="0 0 40 40">
    <g fill="none" fill-rule="evenodd">
        <path d="M0 0h40v40H0z"/>
        <path fill="#FFF" d="M28.333 11.25a2.917 2.917 0 0 1 2.917 2.917v16.666a2.917 2.917 0 0 1-2.917 2.917H6.667a2.917 2.917 0 0 1-2.917-2.917V14.167a2.917 2.917 0 0 1 2.917-2.917h21.666zm-21.666 2.5a.417.417 0 0 0-.417.417v16.666c0 .23.187.417.417.417h21.666c.23 0 .417-.187.417-.417V14.167a.417.417 0 0 0-.417-.417H6.667zM32.5 6.25A3.75 3.75 0 0 1 36.25 10v15a1.25 1.25 0 0 1-2.5 0V10c0-.69-.56-1.25-1.25-1.25h-20a1.25 1.25 0 0 1 0-2.5h20z"/>
    </g>
</svg>
