<svg height="-328" viewBox="155.86 384.89 784.15 302.37" width="2500" xmlns="http://www.w3.org/2000/svg"><path d="m596.32 684.5c-2.46-.93-5.09-.84-7.64-1.23-18.08-2.77-34.69-9.36-50.13-19.02-14.22-8.89-26.35-19.99-35.84-33.9-1.41-2.07-2.14-3.93-1.01-6.37.67-1.44.92-3.07 1.36-4.61.94-.11 1.27.62 1.74 1.06 15.64 14.57 34.23 23.03 55.2 26.5 14.82 2.45 29.48 1.9 43.88-2.6 19.49-6.1 32.73-18.99 40.72-37.56 4.25-9.86 6.68-20.22 8.27-30.78 1.87-12.48 3.28-25.03 3.31-37.66.04-13.23-3.24-25.6-11.68-36.13-10.69-13.33-24.91-18.77-41.68-17.19-18.08 1.71-29.66 12.63-37.7 28.04-5.31 10.18-8.21 21.14-9.91 32.41-2.14 14.15-4.15 28.32-4.51 42.66-.09 3.64.12 7.27.68 10.88 1.29 8.32 5.65 14.47 13.25 18.11 2.22 1.06 2.61 2.21 1.9 4.43-1.1 3.44-1 3.64-4.47 3.03-20.36-3.64-38.6-11.64-53.26-26.59-10.48-10.69-14.34-23.5-12.4-38.45 1.96-15.03 3.09-30.16 4.6-45.25 1.49-14.93 2.99-29.87 4.47-44.8 1.47-14.86 2.93-29.72 4.36-44.58.41-4.3 1.4-8.61.24-12.91-2.83-10.5-10.06-16.27-20.35-18.72-4.69-1.11-9.44-1.76-14.25-1.83-1.3-.02-1.84-.1-1.58-1.73.78-4.79.67-4.8 5.42-4.8 23.25 0 46.5.02 69.75-.01 5.89-.01 11.13 1.7 15.59 5.56 5.12 4.43 7.25 10.01 6.44 16.77-2.45 20.5-4.85 41.01-7.27 61.52-.04.3 0 .61 0 1.13 5-2.5 10-4.69 15.2-6.43 46.68-15.57 104.35 4.55 124.69 59.75 6.44 17.48 8.39 35.56 7.16 54.08-1.02 15.24-4.06 30.03-10.45 43.94-15.73 34.23-41.85 55.34-79.27 62.01-2.84.51-5.79.33-8.55 1.3-5.42-.03-10.85-.03-16.28-.03zm343.68-191.85c-.88.25-1.43-.43-2.07-.78-14.29-7.7-29.57-11.17-45.77-10.75-41.57 1.06-77.81 32.46-84.75 73.42-7.8 46.08 20.06 89.52 65.39 101.37 22.23 5.81 43.73 3.15 64.21-7.39.94-.49 1.71-1.53 3-1.19v4.65c-.85-.15-1.16.61-1.62 1.04-17.24 15.82-37.42 25.91-60.59 28.94-40.57 5.3-75.02-7.21-102.53-37.63-14.63-16.18-23.69-35.34-26.67-56.9-5.59-40.47 6.82-74.82 37.13-102.33 16.45-14.94 36.02-24.02 58-27.09 35.44-4.96 66.82 4.38 93.78 28.08.79.69 1.39 1.65 2.5 1.92-.01 1.54-.01 3.09-.01 4.64zm-746.45-29.62c11.16 0 22.32-.05 33.47.02 8.2.05 14.9 3.19 19.46 10.19 2.18 3.34 3 7.06 2.58 11.07-2.82 26.84-5.63 53.69-8.42 80.53-2.39 23-4.41 46.05-7.26 68.99-1.9 15.35 5.89 24.5 17.84 31.64 5.53 3.3 11.54 5.55 17.72 7.33 1.57.45 2.1.96 1.64 2.67-.96 3.54-.86 3.57-4.55 3.57-17.82-.03-35.65.29-53.46-.21-15.67-.44-31.59-12.31-34.13-29.4-.64-4.27.01-8.5.42-12.72 1.63-16.78 3.3-33.56 4.98-50.34 1.79-18.01 3.61-36.02 5.4-54.03 1.16-11.7 2.18-23.41 3.46-35.1 1.32-12.01-7.77-21.86-16.78-24.66-5.97-1.85-12.05-2.76-18.26-3-1.41-.05-1.8-.29-1.49-1.84.92-4.69.83-4.71 5.52-4.71zm205.2 0c11.08 0 22.16-.01 33.24 0 7.19.01 13.31 2.48 18.06 8 4.24 4.92 4.58 10.66 3.88 16.81-1.82 15.98-3.39 31.99-5.07 47.99-1.79 17.07-3.61 34.15-5.4 51.22-1.74 16.61-3.54 33.22-5.18 49.85-1.03 10.44 4.01 18.11 11.8 24.32 7.06 5.64 15.28 8.99 23.85 11.51 1.92.56 2.04 1.24 1.75 3.03-.42 2.58-1.35 3.39-4.12 3.36-17.97-.2-35.96.23-53.92-.3-15.79-.47-31.69-12.49-34.1-29.7-.56-3.97.02-7.88.4-11.8 1.8-18.55 3.65-37.1 5.5-55.65 1.95-19.55 3.92-39.09 5.87-58.64.86-8.62 1.51-17.26 2.54-25.86 1.27-10.62-6.33-21.06-16.41-24.46-6-2.02-12.18-2.89-18.47-3.12-1.39-.05-1.98-.16-1.64-1.92.91-4.61.78-4.64 5.36-4.64zm-102.43 0c11.08 0 22.17-.09 33.25.03 9.26.1 16.42 3.92 20.69 12.41 2.37 4.73 1.32 9.7.81 14.6-1.48 14.39-2.99 28.78-4.5 43.17-1.64 15.62-3.3 31.23-4.93 46.85-1.62 15.54-3.22 31.09-4.83 46.63-.3 2.92-.53 5.86-.94 8.77-1.53 10.93 3.33 19 11.44 25.57 7.09 5.74 15.39 9.12 24.03 11.67 1.78.52 2.28 1.08 1.79 2.92-.89 3.35-.77 3.38-4.28 3.38-17.83-.03-35.66.25-53.48-.19-15.54-.38-31.15-11.94-34.16-28.31-1-5.44-.03-10.8.48-16.18 1.26-13.32 2.64-26.64 3.96-39.96 1.5-15.09 3-30.18 4.49-45.27 1.47-14.86 2.95-29.72 4.36-44.58.39-4.15 1.45-8.3.73-12.47-1.65-9.62-7.34-15.98-16.39-19.34-5.93-2.2-12.17-2.96-18.46-3.14-1.63-.05-1.88-.59-1.64-2.03.73-4.54.69-4.54 5.26-4.54 10.77.01 21.55.01 32.32.01z"/></svg>