<svg xmlns="http://www.w3.org/2000/svg" width="24" height="24" viewBox="0 0 24 24">
    <g fill="none" fill-rule="evenodd">
        <g>
            <g>
                <g>
                    <g>
                        <path d="M0 0H24V24H0z" transform="translate(-734 -625) translate(520 611) translate(122 14) translate(92)"/>
                        <path fill="#3E495B" d="M19.5 2.25c1.657 0 3 1.343 3 3v10.5c0 3.314-2.686 6-6 6h-12c-1.607 0-2.918-1.263-2.996-2.85l-.004-.15V15c0-1.607 1.263-2.918 2.85-2.996L4.5 12h.109l-.48-.348c-1.3-.945-1.618-2.737-.748-4.067l.085-.124L5.67 4.428c.944-1.3 2.737-1.619 4.067-.75l.123.086.783.568c.388-1.208 1.52-2.082 2.857-2.082zM6.087 13.495L6 13.5H4.5c-.79 0-1.439.612-1.496 1.388L3 15v3.75c0 .79.612 1.439 1.388 1.496l.112.004h8.032c-1.117-.985-1.865-2.38-2.007-3.951l-4.066-2.956c-.105.082-.233.136-.372.152zM19.5 3.75h-6c-.828 0-1.5.672-1.5 1.5v10.266l.102.074-.102.14v.02c0 2.414 1.901 4.384 4.288 4.495l.212.005c2.485 0 4.5-2.015 4.5-4.5V5.25c0-.828-.672-1.5-1.5-1.5zm-2.25 4.501h.12c.776.024 1.489.447 1.88 1.125.207.359.083.817-.275 1.024-.334.192-.753.1-.977-.201l-.048-.074c-.123-.213-.342-.35-.6-.372l-.1-.002h-1.5c-.414 0-.75.335-.75.75 0 .384.29.7.663.744l.087.005h1.5c1.243 0 2.25 1.007 2.25 2.25 0 1.198-.937 2.177-2.118 2.245l-.132.004v.751c0 .414-.336.75-.75.75-.385 0-.702-.29-.745-.663l-.005-.087v-.752h-.12c-.776-.023-1.489-.446-1.88-1.124-.207-.359-.083-.817.275-1.024.334-.192.753-.1.977.201l.048.074c.123.213.342.35.6.372l.1.002h1.5c.414 0 .75-.335.75-.75 0-.384-.29-.7-.663-.744l-.087-.005h-1.5c-1.243 0-2.25-1.007-2.25-2.25 0-1.198.937-2.177 2.118-2.245l.132-.004V7.5c0-.414.336-.75.75-.75.385 0 .702.29.745.663l.005.087v.751zM6.953 5.221l-.07.088L4.68 8.343c-.465.64-.35 1.524.244 2.026l.088.07 5.489 3.987V6.083L8.979 4.977c-.64-.464-1.524-.35-2.026.244z" transform="translate(-734 -625) translate(520 611) translate(122 14) translate(92)"/>
                    </g>
                </g>
            </g>
        </g>
    </g>
</svg>
