<svg xmlns="http://www.w3.org/2000/svg" width="32" height="32" viewBox="0 0 32 32">
    <g fill="none" fill-rule="evenodd">
        <path d="M0 0H32V32H0z"/>
        <path fill="#3E495B" d="M18.707 3.293l2.084 2.084c.233.233.336.565.276.889-.044.24-.067.485-.067.734 0 2.21 1.79 4 4 4 .249 0 .494-.023.734-.067.324-.06.656.043.89.276l2.083 2.084c.39.39.39 1.024 0 1.414l-14 14c-.39.39-1.024.39-1.414 0l-10-10c-.39-.39-.39-1.024 0-1.414l14-14c.39-.39 1.024-.39 1.414 0zM18 5.414L5.414 18 14 26.586 26.586 14l-1.026-1.026c-.186.017-.372.026-.56.026-3.314 0-6-2.686-6-6 0-.188.009-.374.026-.56L18 5.414zM20 15c.552 0 1 .448 1 1v.06c0 .552-.448 1-1 1s-1-.448-1-1V16c0-.552.448-1 1-1zm-2-2c.552 0 1 .448 1 1v.06c0 .552-.448 1-1 1s-1-.448-1-1V14c0-.552.448-1 1-1zm-2-2c.552 0 1 .448 1 1v.06c0 .552-.448 1-1 1s-1-.448-1-1V12c0-.552.448-1 1-1z"/>
    </g>
</svg>
