<svg xmlns="http://www.w3.org/2000/svg" width="48" height="48" viewBox="0 0 48 48">
    <g fill="none" fill-rule="evenodd">
        <path d="M0 0h48v48H0z"/>
        <path fill="#8595AD" d="M24.01 4a19.882 19.882 0 0 1 14.139 5.863A19.882 19.882 0 0 1 44 24.007c-.005 10.91-8.79 19.806-19.655 19.99l-.352.003a19.977 19.977 0 0 1-9.78-2.557l-.402-.233-.333-.199-8.461 2.22 2.258-8.255-.216-.345a19.944 19.944 0 0 1-3.054-10.169L4 23.991C4.005 12.965 12.977 4 24.01 4zm-.001 2C14.082 6 6.005 14.07 6 23.991c0 3.255.87 6.425 2.522 9.2l.23.376.685 1.09-1.577 5.76 5.921-1.553 1.052.626a17.957 17.957 0 0 0 8.7 2.504L24 42l.33-.003c9.657-.175 17.487-8.002 17.666-17.661l.003-.33a17.881 17.881 0 0 0-5.266-12.73 17.874 17.874 0 0 0-12.289-5.27L24.01 6zm-6.973 9c.327 0 .656.004.94.017.304.013.71-.11 1.106.815.41.954 1.396 3.302 1.518 3.543.125.238.207.516.042.835-.164.32-.246.517-.491.796-.246.278-.516.623-.737.836-.248.238-.505.495-.217.974.287.478 1.274 2.04 2.737 3.305 1.88 1.624 3.466 2.128 3.957 2.367.492.238.779.2 1.066-.12.288-.318 1.23-1.392 1.56-1.869.329-.476.656-.398 1.106-.238.451.16 2.869 1.312 3.362 1.552.49.239.82.36.943.56.123.2.123 1.155-.287 2.269s-2.376 2.131-3.32 2.267c-.85.121-1.922.174-3.1-.19a29.693 29.693 0 0 1-2.806-1.005c-4.935-2.067-8.16-6.884-8.406-7.203-.245-.32-2.009-2.589-2.009-4.936 0-2.348 1.27-3.501 1.722-3.98A1.84 1.84 0 0 1 17.036 15z"/>
    </g>
</svg>
