<svg xmlns="http://www.w3.org/2000/svg" width="64" height="32" viewBox="0 0 64 32">
    <path fill="#0C9" fill-rule="evenodd" d="M32 18l12 12H20l12-12zM44.667 1c1.235 0 2.246.96 2.328 2.174l.005.16v17.333c0 1.235-.96 2.246-2.174 2.328l-.16.005H39c-.552 0-1-.448-1-1 0-.513.386-.936.883-.993L39 21h5.667c.16 0 .295-.114.326-.266l.007-.067V3.333c0-.16-.114-.295-.266-.326L44.667 3H19.333c-.16 0-.295.114-.326.266L19 3.333v17.334c0 .16.114.295.266.326l.067.007H25c.552 0 1 .448 1 1 0 .513-.386.936-.883.993L25 23h-5.667c-1.235 0-2.246-.96-2.328-2.174l-.005-.16V3.334c0-1.235.96-2.246 2.174-2.328l.16-.005h25.333z"/>
</svg>
