<svg xmlns="http://www.w3.org/2000/svg" width="64" height="32" viewBox="0 0 64 32">
    <g fill="none" fill-rule="evenodd">
        <path d="M0 0H32V32H0z" transform="translate(16)"/>
        <path fill="#0C9" d="M1.333 24c2.214 0 4 1.787 4 4h-4zm0-5.333c5.16 0 9.334 4.173 9.334 9.333H8c0-3.68-2.987-6.667-6.667-6.667zm0-5.334C9.427 13.333 16 19.893 16 28h-2.667c0-6.627-5.373-12-12-12zM28 4c1.467 0 2.667 1.2 2.667 2.667v18.666C30.667 26.8 29.467 28 28 28h-9.333v-2.667H28V6.667H4v4H1.333v-4C1.333 5.2 2.533 4 4 4zm-2.667 5.333v13.334h-7.506c-1.707-5.28-5.88-9.454-11.16-11.16V9.333h18.666z" transform="translate(16)"/>
    </g>
</svg>
