<?xml version="1.0" encoding="UTF-8"?>
<svg width="56px" height="56px" viewBox="0 0 56 56" version="1.1" xmlns="http://www.w3.org/2000/svg" xmlns:xlink="http://www.w3.org/1999/xlink">
    <!-- Generator: sketchtool 61 (101010) - https://sketch.com -->
    <title>B56E02CD-607C-424A-942C-4E005BC12FDA</title>
    <desc>Created with sketchtool.</desc>
    <g id="Page-1" stroke="none" stroke-width="1" fill="none" fill-rule="evenodd">
        <g id="01_web_promoPage" transform="translate(-1182.000000, -4166.000000)">
            <g id="promo-page/section/web/devices" transform="translate(0.000000, 4000.000000)">
                <g id="shdicons/32-2px/misc/devices" transform="translate(1182.000000, 166.000000)">
                    <rect id="shaper" x="0" y="0" width="56" height="56"></rect>
                    <path d="M49,15.75 C51.8994949,15.75 54.25,18.1005051 54.25,21 L54.25,45.5 C54.25,48.3994949 51.8994949,50.75 49,50.75 L35,50.75 C32.7144059,50.75 30.7699401,49.2894558 30.0490082,47.2507728 L14,47.25 C13.0335017,47.25 12.25,46.4664983 12.25,45.5 C12.25,44.5335017 13.0335017,43.75 14,43.75 L14,43.75 L29.75,43.75 L29.75,21 C29.75,18.1005051 32.1005051,15.75 35,15.75 L49,15.75 Z M49,19.25 L46.1401468,19.2512682 C45.8373835,19.7736449 45.2722234,20.125 44.625,20.125 L44.625,20.125 L39.375,20.125 C38.7277766,20.125 38.1626165,19.7736449 37.8598532,19.2512682 L35,19.25 C34.0335017,19.25 33.25,20.0335017 33.25,21 L33.25,45.5 C33.25,46.4664983 34.0335017,47.25 35,47.25 L49,47.25 C49.9664983,47.25 50.75,46.4664983 50.75,45.5 L50.75,21 C50.75,20.0335017 49.9664983,19.25 49,19.25 Z M45.5,5.25 C48.3994949,5.25 50.75,7.60050506 50.75,10.5 C50.75,11.4664983 49.9664983,12.25 49,12.25 C48.0335017,12.25 47.25,11.4664983 47.25,10.5 C47.25,9.53350169 46.4664983,8.75 45.5,8.75 L45.5,8.75 L10.5,8.75 C9.53350169,8.75 8.75,9.53350169 8.75,10.5 L8.75,10.5 L8.75,35 C8.75,35.9664983 9.53350169,36.75 10.5,36.75 L10.5,36.75 L24.5,36.75 C25.4664983,36.75 26.25,37.5335017 26.25,38.5 C26.25,39.4664983 25.4664983,40.25 24.5,40.25 L24.5,40.25 L10.5,40.25 C7.60050506,40.25 5.25,37.8994949 5.25,35 L5.25,35 L5.25,10.5 C5.25,7.60050506 7.60050506,5.25 10.5,5.25 L10.5,5.25 Z" id="Combined-Shape" fill="#FFFFFF"></path>
                </g>
            </g>
        </g>
    </g>
</svg>