<svg width="80" height="56" xmlns="http://www.w3.org/2000/svg" xmlns:xlink="http://www.w3.org/1999/xlink">
    <defs>
        <path id="a" d="M0 0h80v20H0z"/>
    </defs>
    <g fill="none" fill-rule="evenodd">
        <path d="m69.803 35.2-.659 1.88h-.006l-.676-1.88h-.603v2.4h.408v-1.852h.007l.677 1.852h.356l.678-1.852h.006V37.6h.409v-2.4h-.597zm-4.203 0v.364h.774V37.6h.429v-2.036h.778V35.2H65.6z" fill="#EF4123"/>
        <g transform="translate(0 17.6)">
            <mask id="b" fill="#fff">
                <use xlink:href="#a"/>
            </mask>
            <path d="M59.947 20 80 0H67.543l-20 20h12.404zM57.211 8.686H31.926c-6.714 0-7.765.513-10.81 3.559L13.36 20h10.49l2.498-2.497c1.65-1.649 2.386-1.806 5.71-1.806h18.14l7.013-7.011zm-37.025 2.709L11.316 20H0L14.077 6.03C19.309.85 21.833 0 30.757 0h35.246l-7.65 7.49H31.766c-6.667 0-8.085.514-11.58 3.905z" fill="#EF4123" mask="url(#b)"/>
        </g>
    </g>
</svg>
